<?xml version="1.0" encoding="utf-8" standalone="no"?>
<!DOCTYPE svg PUBLIC "-//W3C//DTD SVG 1.1//EN"
  "http://www.w3.org/Graphics/SVG/1.1/DTD/svg11.dtd">
<svg xmlns:xlink="http://www.w3.org/1999/xlink" width="864pt" height="432pt" viewBox="0 0 864 432" xmlns="http://www.w3.org/2000/svg" version="1.1">
 <metadata>
  <rdf:RDF xmlns:dc="http://purl.org/dc/elements/1.1/" xmlns:cc="http://creativecommons.org/ns#" xmlns:rdf="http://www.w3.org/1999/02/22-rdf-syntax-ns#">
   <cc:Work>
    <dc:type rdf:resource="http://purl.org/dc/dcmitype/StillImage"/>
    <dc:date>2025-01-02T08:48:35.122910</dc:date>
    <dc:format>image/svg+xml</dc:format>
    <dc:creator>
     <cc:Agent>
      <dc:title>Matplotlib v3.8.0, https://matplotlib.org/</dc:title>
     </cc:Agent>
    </dc:creator>
   </cc:Work>
  </rdf:RDF>
 </metadata>
 <defs>
  <style type="text/css">*{stroke-linejoin: round; stroke-linecap: butt}</style>
 </defs>
 <g id="figure_1">
  <g id="patch_1">
   <path d="M 0 432 
L 864 432 
L 864 0 
L 0 0 
z
" style="fill: #ffffff"/>
  </g>
  <g id="axes_1">
   <g id="patch_2">
    <path d="M 86.13 361.224 
L 811.75 361.224 
L 811.75 45.24 
L 86.13 45.24 
z
" style="fill: #ffffff"/>
   </g>
   <g id="patch_3">
    <path d="M 86.13 361.224 
L 86.13 45.24 
L 466.724804 45.24 
L 466.724804 361.224 
z
" clip-path="url(#p8af8936189)" style="fill: #ffffe0; opacity: 0.5"/>
   </g>
   <g id="patch_4">
    <path d="M 448.94 361.224 
L 448.94 45.24 
L 811.75 45.24 
L 811.75 361.224 
z
" clip-path="url(#p8af8936189)" style="fill: #add8e6; opacity: 0.5"/>
   </g>
   <g id="patch_5">
    <path d="M 98.579363 361.224 
L 123.478088 361.224 
L 123.478088 191.495451 
L 98.579363 191.495451 
z
" clip-path="url(#p8af8936189)" style="fill: #edd1c2; stroke: #000000; stroke-linejoin: miter"/>
   </g>
   <g id="patch_6">
    <path d="M 134.148971 361.224 
L 159.047696 361.224 
L 159.047696 133.113646 
L 134.148971 133.113646 
z
" clip-path="url(#p8af8936189)" style="fill: #f29072; stroke: #000000; stroke-linejoin: miter"/>
   </g>
   <g id="patch_7">
    <path d="M 169.718578 361.224 
L 194.617304 361.224 
L 194.617304 278.165349 
L 169.718578 278.165349 
z
" clip-path="url(#p8af8936189)" style="fill: #97b8ff; stroke: #000000; stroke-linejoin: miter"/>
   </g>
   <g id="patch_8">
    <path d="M 205.288186 361.224 
L 230.186912 361.224 
L 230.186912 112.048046 
L 205.288186 112.048046 
z
" clip-path="url(#p8af8936189)" style="fill: #e57058; stroke: #000000; stroke-linejoin: miter"/>
   </g>
   <g id="patch_9">
    <path d="M 240.857794 361.224 
L 265.75652 361.224 
L 265.75652 308.259063 
L 240.857794 308.259063 
z
" clip-path="url(#p8af8936189)" style="fill: #7396f5; stroke: #000000; stroke-linejoin: miter"/>
   </g>
   <g id="patch_10">
    <path d="M 276.427402 361.224 
L 301.326127 361.224 
L 301.326127 361.224 
L 276.427402 361.224 
z
" clip-path="url(#p8af8936189)" style="fill: #3b4cc0; stroke: #000000; stroke-linejoin: miter"/>
   </g>
   <g id="patch_11">
    <path d="M 311.99701 361.224 
L 336.895735 361.224 
L 336.895735 303.444069 
L 311.99701 303.444069 
z
" clip-path="url(#p8af8936189)" style="fill: #7a9df8; stroke: #000000; stroke-linejoin: miter"/>
   </g>
   <g id="patch_12">
    <path d="M 347.566618 361.224 
L 372.465343 361.224 
L 372.465343 83.759954 
L 347.566618 83.759954 
z
" clip-path="url(#p8af8936189)" style="fill: #ca3b37; stroke: #000000; stroke-linejoin: miter"/>
   </g>
   <g id="patch_13">
    <path d="M 383.136225 361.224 
L 408.034951 361.224 
L 408.034951 310.064686 
L 383.136225 310.064686 
z
" clip-path="url(#p8af8936189)" style="fill: #7295f4; stroke: #000000; stroke-linejoin: miter"/>
   </g>
   <g id="patch_14">
    <path d="M 418.705833 361.224 
L 443.604559 361.224 
L 443.604559 165.614857 
L 418.705833 165.614857 
z
" clip-path="url(#p8af8936189)" style="fill: #f7b99e; stroke: #000000; stroke-linejoin: miter"/>
   </g>
   <g id="patch_15">
    <path d="M 454.275441 361.224 
L 479.174167 361.224 
L 479.174167 65.402789 
L 454.275441 65.402789 
z
" clip-path="url(#p8af8936189)" style="fill: #b40426; stroke: #000000; stroke-linejoin: miter"/>
   </g>
   <g id="patch_16">
    <path d="M 489.845049 361.224 
L 514.743775 361.224 
L 514.743775 83.759954 
L 489.845049 83.759954 
z
" clip-path="url(#p8af8936189)" style="fill: #ca3b37; stroke: #000000; stroke-linejoin: miter"/>
   </g>
   <g id="patch_17">
    <path d="M 525.414657 361.224 
L 550.313382 361.224 
L 550.313382 106.029303 
L 525.414657 106.029303 
z
" clip-path="url(#p8af8936189)" style="fill: #e16751; stroke: #000000; stroke-linejoin: miter"/>
   </g>
   <g id="patch_18">
    <path d="M 560.984265 361.224 
L 585.88299 361.224 
L 585.88299 86.769326 
L 560.984265 86.769326 
z
" clip-path="url(#p8af8936189)" style="fill: #cd423b; stroke: #000000; stroke-linejoin: miter"/>
   </g>
   <g id="patch_19">
    <path d="M 596.553873 361.224 
L 621.452598 361.224 
L 621.452598 89.176823 
L 596.553873 89.176823 
z
" clip-path="url(#p8af8936189)" style="fill: #d0473d; stroke: #000000; stroke-linejoin: miter"/>
   </g>
   <g id="patch_20">
    <path d="M 632.12348 361.224 
L 657.022206 361.224 
L 657.022206 139.433326 
L 632.12348 139.433326 
z
" clip-path="url(#p8af8936189)" style="fill: #f49a7b; stroke: #000000; stroke-linejoin: miter"/>
   </g>
   <g id="patch_21">
    <path d="M 667.693088 361.224 
L 692.591814 361.224 
L 692.591814 110.54336 
L 667.693088 110.54336 
z
" clip-path="url(#p8af8936189)" style="fill: #e46e56; stroke: #000000; stroke-linejoin: miter"/>
   </g>
   <g id="patch_22">
    <path d="M 703.262696 361.224 
L 728.161422 361.224 
L 728.161422 135.220206 
L 703.262696 135.220206 
z
" clip-path="url(#p8af8936189)" style="fill: #f39475; stroke: #000000; stroke-linejoin: miter"/>
   </g>
   <g id="patch_23">
    <path d="M 738.832304 361.224 
L 763.731029 361.224 
L 763.731029 186.680457 
L 738.832304 186.680457 
z
" clip-path="url(#p8af8936189)" style="fill: #f1cdba; stroke: #000000; stroke-linejoin: miter"/>
   </g>
   <g id="patch_24">
    <path d="M 774.401912 361.224 
L 799.300637 361.224 
L 799.300637 122.881783 
L 774.401912 122.881783 
z
" clip-path="url(#p8af8936189)" style="fill: #ec8165; stroke: #000000; stroke-linejoin: miter"/>
   </g>
   <g id="matplotlib.axis_1">
    <g id="xtick_1">
     <g id="line2d_1">
      <defs>
       <path id="m587459c874" d="M 0 0 
L 0 6 
" style="stroke: #000000"/>
      </defs>
      <g>
       <use xlink:href="#m587459c874" x="111.028725" y="361.224" style="stroke: #000000"/>
      </g>
     </g>
     <g id="text_1">
      <!-- A -->
      <g transform="translate(103.289663 385.920875) scale(0.2 -0.2)">
       <defs>
        <path id="DejaVuSans-Bold-41" d="M 3419 850 
L 1538 850 
L 1241 0 
L 31 0 
L 1759 4666 
L 3194 4666 
L 4922 0 
L 3713 0 
L 3419 850 
z
M 1838 1716 
L 3116 1716 
L 2478 3572 
L 1838 1716 
z
" transform="scale(0.015625)"/>
       </defs>
       <use xlink:href="#DejaVuSans-Bold-41"/>
      </g>
     </g>
    </g>
    <g id="xtick_2">
     <g id="line2d_2">
      <g>
       <use xlink:href="#m587459c874" x="146.598333" y="361.224" style="stroke: #000000"/>
      </g>
     </g>
     <g id="text_2">
      <!-- C -->
      <g transform="translate(139.259271 385.920875) scale(0.2 -0.2)">
       <defs>
        <path id="DejaVuSans-Bold-43" d="M 4288 256 
Q 3956 84 3597 -3 
Q 3238 -91 2847 -91 
Q 1681 -91 1000 561 
Q 319 1213 319 2328 
Q 319 3447 1000 4098 
Q 1681 4750 2847 4750 
Q 3238 4750 3597 4662 
Q 3956 4575 4288 4403 
L 4288 3438 
Q 3953 3666 3628 3772 
Q 3303 3878 2944 3878 
Q 2300 3878 1931 3465 
Q 1563 3053 1563 2328 
Q 1563 1606 1931 1193 
Q 2300 781 2944 781 
Q 3303 781 3628 887 
Q 3953 994 4288 1222 
L 4288 256 
z
" transform="scale(0.015625)"/>
       </defs>
       <use xlink:href="#DejaVuSans-Bold-43"/>
      </g>
     </g>
    </g>
    <g id="xtick_3">
     <g id="line2d_3">
      <g>
       <use xlink:href="#m587459c874" x="182.167941" y="361.224" style="stroke: #000000"/>
      </g>
     </g>
     <g id="text_3">
      <!-- F -->
      <g transform="translate(175.336691 385.920875) scale(0.2 -0.2)">
       <defs>
        <path id="DejaVuSans-Bold-46" d="M 588 4666 
L 3834 4666 
L 3834 3756 
L 1791 3756 
L 1791 2888 
L 3713 2888 
L 3713 1978 
L 1791 1978 
L 1791 0 
L 588 0 
L 588 4666 
z
" transform="scale(0.015625)"/>
       </defs>
       <use xlink:href="#DejaVuSans-Bold-46"/>
      </g>
     </g>
    </g>
    <g id="xtick_4">
     <g id="line2d_4">
      <g>
       <use xlink:href="#m587459c874" x="217.737549" y="361.224" style="stroke: #000000"/>
      </g>
     </g>
     <g id="text_4">
      <!-- G -->
      <g transform="translate(209.529737 385.920875) scale(0.2 -0.2)">
       <defs>
        <path id="DejaVuSans-Bold-47" d="M 4781 347 
Q 4331 128 3847 18 
Q 3363 -91 2847 -91 
Q 1681 -91 1000 561 
Q 319 1213 319 2328 
Q 319 3456 1012 4103 
Q 1706 4750 2913 4750 
Q 3378 4750 3804 4662 
Q 4231 4575 4609 4403 
L 4609 3438 
Q 4219 3659 3833 3768 
Q 3447 3878 3059 3878 
Q 2341 3878 1952 3476 
Q 1563 3075 1563 2328 
Q 1563 1588 1938 1184 
Q 2313 781 3003 781 
Q 3191 781 3352 804 
Q 3513 828 3641 878 
L 3641 1784 
L 2906 1784 
L 2906 2591 
L 4781 2591 
L 4781 347 
z
" transform="scale(0.015625)"/>
       </defs>
       <use xlink:href="#DejaVuSans-Bold-47"/>
      </g>
     </g>
    </g>
    <g id="xtick_5">
     <g id="line2d_5">
      <g>
       <use xlink:href="#m587459c874" x="253.307157" y="361.224" style="stroke: #000000"/>
      </g>
     </g>
     <g id="text_5">
      <!-- I -->
      <g transform="translate(249.586844 385.920875) scale(0.2 -0.2)">
       <defs>
        <path id="DejaVuSans-Bold-49" d="M 588 4666 
L 1791 4666 
L 1791 0 
L 588 0 
L 588 4666 
z
" transform="scale(0.015625)"/>
       </defs>
       <use xlink:href="#DejaVuSans-Bold-49"/>
      </g>
     </g>
    </g>
    <g id="xtick_6">
     <g id="line2d_6">
      <g>
       <use xlink:href="#m587459c874" x="288.876765" y="361.224" style="stroke: #000000"/>
      </g>
     </g>
     <g id="text_6">
      <!-- L -->
      <g transform="translate(282.50489 385.920875) scale(0.2 -0.2)">
       <defs>
        <path id="DejaVuSans-Bold-4c" d="M 588 4666 
L 1791 4666 
L 1791 909 
L 3903 909 
L 3903 0 
L 588 0 
L 588 4666 
z
" transform="scale(0.015625)"/>
       </defs>
       <use xlink:href="#DejaVuSans-Bold-4c"/>
      </g>
     </g>
    </g>
    <g id="xtick_7">
     <g id="line2d_7">
      <g>
       <use xlink:href="#m587459c874" x="324.446373" y="361.224" style="stroke: #000000"/>
      </g>
     </g>
     <g id="text_7">
      <!-- M -->
      <g transform="translate(314.49481 385.920875) scale(0.2 -0.2)">
       <defs>
        <path id="DejaVuSans-Bold-4d" d="M 588 4666 
L 2119 4666 
L 3181 2169 
L 4250 4666 
L 5778 4666 
L 5778 0 
L 4641 0 
L 4641 3413 
L 3566 897 
L 2803 897 
L 1728 3413 
L 1728 0 
L 588 0 
L 588 4666 
z
" transform="scale(0.015625)"/>
       </defs>
       <use xlink:href="#DejaVuSans-Bold-4d"/>
      </g>
     </g>
    </g>
    <g id="xtick_8">
     <g id="line2d_8">
      <g>
       <use xlink:href="#m587459c874" x="360.01598" y="361.224" style="stroke: #000000"/>
      </g>
     </g>
     <g id="text_8">
      <!-- P -->
      <g transform="translate(352.686293 385.920875) scale(0.2 -0.2)">
       <defs>
        <path id="DejaVuSans-Bold-50" d="M 588 4666 
L 2584 4666 
Q 3475 4666 3951 4270 
Q 4428 3875 4428 3144 
Q 4428 2409 3951 2014 
Q 3475 1619 2584 1619 
L 1791 1619 
L 1791 0 
L 588 0 
L 588 4666 
z
M 1791 3794 
L 1791 2491 
L 2456 2491 
Q 2806 2491 2997 2661 
Q 3188 2831 3188 3144 
Q 3188 3456 2997 3625 
Q 2806 3794 2456 3794 
L 1791 3794 
z
" transform="scale(0.015625)"/>
       </defs>
       <use xlink:href="#DejaVuSans-Bold-50"/>
      </g>
     </g>
    </g>
    <g id="xtick_9">
     <g id="line2d_9">
      <g>
       <use xlink:href="#m587459c874" x="395.585588" y="361.224" style="stroke: #000000"/>
      </g>
     </g>
     <g id="text_9">
      <!-- V -->
      <g transform="translate(387.846526 385.920875) scale(0.2 -0.2)">
       <defs>
        <path id="DejaVuSans-Bold-56" d="M 31 4666 
L 1241 4666 
L 2478 1222 
L 3713 4666 
L 4922 4666 
L 3194 0 
L 1759 0 
L 31 4666 
z
" transform="scale(0.015625)"/>
       </defs>
       <use xlink:href="#DejaVuSans-Bold-56"/>
      </g>
     </g>
    </g>
    <g id="xtick_10">
     <g id="line2d_10">
      <g>
       <use xlink:href="#m587459c874" x="431.155196" y="361.224" style="stroke: #000000"/>
      </g>
     </g>
     <g id="text_10">
      <!-- W -->
      <g transform="translate(420.125509 385.920875) scale(0.2 -0.2)">
       <defs>
        <path id="DejaVuSans-Bold-57" d="M 191 4666 
L 1344 4666 
L 2150 1275 
L 2950 4666 
L 4109 4666 
L 4909 1275 
L 5716 4666 
L 6859 4666 
L 5759 0 
L 4372 0 
L 3525 3547 
L 2688 0 
L 1300 0 
L 191 4666 
z
" transform="scale(0.015625)"/>
       </defs>
       <use xlink:href="#DejaVuSans-Bold-57"/>
      </g>
     </g>
    </g>
    <g id="xtick_11">
     <g id="line2d_11">
      <g>
       <use xlink:href="#m587459c874" x="466.724804" y="361.224" style="stroke: #000000"/>
      </g>
     </g>
     <g id="text_11">
      <!-- D -->
      <g transform="translate(458.423241 385.920875) scale(0.2 -0.2)">
       <defs>
        <path id="DejaVuSans-Bold-44" d="M 1791 3756 
L 1791 909 
L 2222 909 
Q 2959 909 3348 1275 
Q 3738 1641 3738 2338 
Q 3738 3031 3350 3393 
Q 2963 3756 2222 3756 
L 1791 3756 
z
M 588 4666 
L 1856 4666 
Q 2919 4666 3439 4514 
Q 3959 4363 4331 4000 
Q 4659 3684 4818 3271 
Q 4978 2859 4978 2338 
Q 4978 1809 4818 1395 
Q 4659 981 4331 666 
Q 3956 303 3431 151 
Q 2906 0 1856 0 
L 588 0 
L 588 4666 
z
" transform="scale(0.015625)"/>
       </defs>
       <use xlink:href="#DejaVuSans-Bold-44"/>
      </g>
     </g>
    </g>
    <g id="xtick_12">
     <g id="line2d_12">
      <g>
       <use xlink:href="#m587459c874" x="502.294412" y="361.224" style="stroke: #000000"/>
      </g>
     </g>
     <g id="text_12">
      <!-- E -->
      <g transform="translate(495.463162 385.920875) scale(0.2 -0.2)">
       <defs>
        <path id="DejaVuSans-Bold-45" d="M 588 4666 
L 3834 4666 
L 3834 3756 
L 1791 3756 
L 1791 2888 
L 3713 2888 
L 3713 1978 
L 1791 1978 
L 1791 909 
L 3903 909 
L 3903 0 
L 588 0 
L 588 4666 
z
" transform="scale(0.015625)"/>
       </defs>
       <use xlink:href="#DejaVuSans-Bold-45"/>
      </g>
     </g>
    </g>
    <g id="xtick_13">
     <g id="line2d_13">
      <g>
       <use xlink:href="#m587459c874" x="537.86402" y="361.224" style="stroke: #000000"/>
      </g>
     </g>
     <g id="text_13">
      <!-- H -->
      <g transform="translate(529.49527 385.920875) scale(0.2 -0.2)">
       <defs>
        <path id="DejaVuSans-Bold-48" d="M 588 4666 
L 1791 4666 
L 1791 2888 
L 3566 2888 
L 3566 4666 
L 4769 4666 
L 4769 0 
L 3566 0 
L 3566 1978 
L 1791 1978 
L 1791 0 
L 588 0 
L 588 4666 
z
" transform="scale(0.015625)"/>
       </defs>
       <use xlink:href="#DejaVuSans-Bold-48"/>
      </g>
     </g>
    </g>
    <g id="xtick_14">
     <g id="line2d_14">
      <g>
       <use xlink:href="#m587459c874" x="573.433627" y="361.224" style="stroke: #000000"/>
      </g>
     </g>
     <g id="text_14">
      <!-- K -->
      <g transform="translate(565.68519 385.920875) scale(0.2 -0.2)">
       <defs>
        <path id="DejaVuSans-Bold-4b" d="M 588 4666 
L 1791 4666 
L 1791 2963 
L 3525 4666 
L 4922 4666 
L 2675 2456 
L 5153 0 
L 3647 0 
L 1791 1838 
L 1791 0 
L 588 0 
L 588 4666 
z
" transform="scale(0.015625)"/>
       </defs>
       <use xlink:href="#DejaVuSans-Bold-4b"/>
      </g>
     </g>
    </g>
    <g id="xtick_15">
     <g id="line2d_15">
      <g>
       <use xlink:href="#m587459c874" x="609.003235" y="361.224" style="stroke: #000000"/>
      </g>
     </g>
     <g id="text_15">
      <!-- N -->
      <g transform="translate(600.634485 385.920875) scale(0.2 -0.2)">
       <defs>
        <path id="DejaVuSans-Bold-4e" d="M 588 4666 
L 1931 4666 
L 3628 1466 
L 3628 4666 
L 4769 4666 
L 4769 0 
L 3425 0 
L 1728 3200 
L 1728 0 
L 588 0 
L 588 4666 
z
" transform="scale(0.015625)"/>
       </defs>
       <use xlink:href="#DejaVuSans-Bold-4e"/>
      </g>
     </g>
    </g>
    <g id="xtick_16">
     <g id="line2d_16">
      <g>
       <use xlink:href="#m587459c874" x="644.572843" y="361.224" style="stroke: #000000"/>
      </g>
     </g>
     <g id="text_16">
      <!-- Q -->
      <g transform="translate(636.071281 385.920875) scale(0.2 -0.2)">
       <defs>
        <path id="DejaVuSans-Bold-51" d="M 2847 -84 
L 2753 -84 
Q 1600 -84 959 553 
Q 319 1191 319 2328 
Q 319 3463 958 4106 
Q 1597 4750 2719 4750 
Q 3853 4750 4486 4112 
Q 5119 3475 5119 2328 
Q 5119 1541 4783 972 
Q 4447 403 3816 116 
L 4756 -934 
L 3609 -934 
L 2847 -84 
z
M 2719 3878 
Q 2169 3878 1866 3472 
Q 1563 3066 1563 2328 
Q 1563 1578 1859 1179 
Q 2156 781 2719 781 
Q 3272 781 3575 1187 
Q 3878 1594 3878 2328 
Q 3878 3066 3575 3472 
Q 3272 3878 2719 3878 
z
" transform="scale(0.015625)"/>
       </defs>
       <use xlink:href="#DejaVuSans-Bold-51"/>
      </g>
     </g>
    </g>
    <g id="xtick_17">
     <g id="line2d_17">
      <g>
       <use xlink:href="#m587459c874" x="680.142451" y="361.224" style="stroke: #000000"/>
      </g>
     </g>
     <g id="text_17">
      <!-- R -->
      <g transform="translate(672.442451 385.920875) scale(0.2 -0.2)">
       <defs>
        <path id="DejaVuSans-Bold-52" d="M 2297 2597 
Q 2675 2597 2839 2737 
Q 3003 2878 3003 3200 
Q 3003 3519 2839 3656 
Q 2675 3794 2297 3794 
L 1791 3794 
L 1791 2597 
L 2297 2597 
z
M 1791 1766 
L 1791 0 
L 588 0 
L 588 4666 
L 2425 4666 
Q 3347 4666 3776 4356 
Q 4206 4047 4206 3378 
Q 4206 2916 3982 2619 
Q 3759 2322 3309 2181 
Q 3556 2125 3751 1926 
Q 3947 1728 4147 1325 
L 4800 0 
L 3519 0 
L 2950 1159 
Q 2778 1509 2601 1637 
Q 2425 1766 2131 1766 
L 1791 1766 
z
" transform="scale(0.015625)"/>
       </defs>
       <use xlink:href="#DejaVuSans-Bold-52"/>
      </g>
     </g>
    </g>
    <g id="xtick_18">
     <g id="line2d_18">
      <g>
       <use xlink:href="#m587459c874" x="715.712059" y="361.224" style="stroke: #000000"/>
      </g>
     </g>
     <g id="text_18">
      <!-- S -->
      <g transform="translate(708.510496 385.920875) scale(0.2 -0.2)">
       <defs>
        <path id="DejaVuSans-Bold-53" d="M 3834 4519 
L 3834 3531 
Q 3450 3703 3084 3790 
Q 2719 3878 2394 3878 
Q 1963 3878 1756 3759 
Q 1550 3641 1550 3391 
Q 1550 3203 1689 3098 
Q 1828 2994 2194 2919 
L 2706 2816 
Q 3484 2659 3812 2340 
Q 4141 2022 4141 1434 
Q 4141 663 3683 286 
Q 3225 -91 2284 -91 
Q 1841 -91 1394 -6 
Q 947 78 500 244 
L 500 1259 
Q 947 1022 1364 901 
Q 1781 781 2169 781 
Q 2563 781 2772 912 
Q 2981 1044 2981 1288 
Q 2981 1506 2839 1625 
Q 2697 1744 2272 1838 
L 1806 1941 
Q 1106 2091 782 2419 
Q 459 2747 459 3303 
Q 459 4000 909 4375 
Q 1359 4750 2203 4750 
Q 2588 4750 2994 4692 
Q 3400 4634 3834 4519 
z
" transform="scale(0.015625)"/>
       </defs>
       <use xlink:href="#DejaVuSans-Bold-53"/>
      </g>
     </g>
    </g>
    <g id="xtick_19">
     <g id="line2d_19">
      <g>
       <use xlink:href="#m587459c874" x="751.281667" y="361.224" style="stroke: #000000"/>
      </g>
     </g>
     <g id="text_19">
      <!-- T -->
      <g transform="translate(744.459792 385.920875) scale(0.2 -0.2)">
       <defs>
        <path id="DejaVuSans-Bold-54" d="M 31 4666 
L 4331 4666 
L 4331 3756 
L 2784 3756 
L 2784 0 
L 1581 0 
L 1581 3756 
L 31 3756 
L 31 4666 
z
" transform="scale(0.015625)"/>
       </defs>
       <use xlink:href="#DejaVuSans-Bold-54"/>
      </g>
     </g>
    </g>
    <g id="xtick_20">
     <g id="line2d_20">
      <g>
       <use xlink:href="#m587459c874" x="786.851275" y="361.224" style="stroke: #000000"/>
      </g>
     </g>
     <g id="text_20">
      <!-- Y -->
      <g transform="translate(779.61065 385.920875) scale(0.2 -0.2)">
       <defs>
        <path id="DejaVuSans-Bold-59" d="M -63 4666 
L 1253 4666 
L 2316 3003 
L 3378 4666 
L 4697 4666 
L 2919 1966 
L 2919 0 
L 1716 0 
L 1716 1966 
L -63 4666 
z
" transform="scale(0.015625)"/>
       </defs>
       <use xlink:href="#DejaVuSans-Bold-59"/>
      </g>
     </g>
    </g>
   </g>
   <g id="matplotlib.axis_2">
    <g id="ytick_1">
     <g id="line2d_21">
      <defs>
       <path id="m776693ddfd" d="M 0 0 
L -6 0 
" style="stroke: #000000"/>
      </defs>
      <g>
       <use xlink:href="#m776693ddfd" x="86.13" y="361.224" style="stroke: #000000"/>
      </g>
     </g>
     <g id="text_21">
      <!-- 0.0 -->
      <g transform="translate(44.744687 368.062594) scale(0.18 -0.18)">
       <defs>
        <path id="DejaVuSans-Bold-30" d="M 2944 2338 
Q 2944 3213 2780 3570 
Q 2616 3928 2228 3928 
Q 1841 3928 1675 3570 
Q 1509 3213 1509 2338 
Q 1509 1453 1675 1090 
Q 1841 728 2228 728 
Q 2613 728 2778 1090 
Q 2944 1453 2944 2338 
z
M 4147 2328 
Q 4147 1169 3647 539 
Q 3147 -91 2228 -91 
Q 1306 -91 806 539 
Q 306 1169 306 2328 
Q 306 3491 806 4120 
Q 1306 4750 2228 4750 
Q 3147 4750 3647 4120 
Q 4147 3491 4147 2328 
z
" transform="scale(0.015625)"/>
        <path id="DejaVuSans-Bold-2e" d="M 653 1209 
L 1778 1209 
L 1778 0 
L 653 0 
L 653 1209 
z
" transform="scale(0.015625)"/>
       </defs>
       <use xlink:href="#DejaVuSans-Bold-30"/>
       <use xlink:href="#DejaVuSans-Bold-2e" x="69.580078"/>
       <use xlink:href="#DejaVuSans-Bold-30" x="107.568359"/>
      </g>
     </g>
    </g>
    <g id="ytick_2">
     <g id="line2d_22">
      <g>
       <use xlink:href="#m776693ddfd" x="86.13" y="301.036571" style="stroke: #000000"/>
      </g>
     </g>
     <g id="text_22">
      <!-- 0.2 -->
      <g transform="translate(44.744687 307.875165) scale(0.18 -0.18)">
       <defs>
        <path id="DejaVuSans-Bold-32" d="M 1844 884 
L 3897 884 
L 3897 0 
L 506 0 
L 506 884 
L 2209 2388 
Q 2438 2594 2547 2791 
Q 2656 2988 2656 3200 
Q 2656 3528 2436 3728 
Q 2216 3928 1850 3928 
Q 1569 3928 1234 3808 
Q 900 3688 519 3450 
L 519 4475 
Q 925 4609 1322 4679 
Q 1719 4750 2100 4750 
Q 2938 4750 3402 4381 
Q 3866 4013 3866 3353 
Q 3866 2972 3669 2642 
Q 3472 2313 2841 1759 
L 1844 884 
z
" transform="scale(0.015625)"/>
       </defs>
       <use xlink:href="#DejaVuSans-Bold-30"/>
       <use xlink:href="#DejaVuSans-Bold-2e" x="69.580078"/>
       <use xlink:href="#DejaVuSans-Bold-32" x="107.568359"/>
      </g>
     </g>
    </g>
    <g id="ytick_3">
     <g id="line2d_23">
      <g>
       <use xlink:href="#m776693ddfd" x="86.13" y="240.849143" style="stroke: #000000"/>
      </g>
     </g>
     <g id="text_23">
      <!-- 0.4 -->
      <g transform="translate(44.744687 247.687737) scale(0.18 -0.18)">
       <defs>
        <path id="DejaVuSans-Bold-34" d="M 2356 3675 
L 1038 1722 
L 2356 1722 
L 2356 3675 
z
M 2156 4666 
L 3494 4666 
L 3494 1722 
L 4159 1722 
L 4159 850 
L 3494 850 
L 3494 0 
L 2356 0 
L 2356 850 
L 288 850 
L 288 1881 
L 2156 4666 
z
" transform="scale(0.015625)"/>
       </defs>
       <use xlink:href="#DejaVuSans-Bold-30"/>
       <use xlink:href="#DejaVuSans-Bold-2e" x="69.580078"/>
       <use xlink:href="#DejaVuSans-Bold-34" x="107.568359"/>
      </g>
     </g>
    </g>
    <g id="ytick_4">
     <g id="line2d_24">
      <g>
       <use xlink:href="#m776693ddfd" x="86.13" y="180.661714" style="stroke: #000000"/>
      </g>
     </g>
     <g id="text_24">
      <!-- 0.6 -->
      <g transform="translate(44.744687 187.500308) scale(0.18 -0.18)">
       <defs>
        <path id="DejaVuSans-Bold-36" d="M 2316 2303 
Q 2000 2303 1842 2098 
Q 1684 1894 1684 1484 
Q 1684 1075 1842 870 
Q 2000 666 2316 666 
Q 2634 666 2792 870 
Q 2950 1075 2950 1484 
Q 2950 1894 2792 2098 
Q 2634 2303 2316 2303 
z
M 3803 4544 
L 3803 3681 
Q 3506 3822 3243 3889 
Q 2981 3956 2731 3956 
Q 2194 3956 1894 3657 
Q 1594 3359 1544 2772 
Q 1750 2925 1990 3001 
Q 2231 3078 2516 3078 
Q 3231 3078 3670 2659 
Q 4109 2241 4109 1563 
Q 4109 813 3618 361 
Q 3128 -91 2303 -91 
Q 1394 -91 895 523 
Q 397 1138 397 2266 
Q 397 3422 980 4083 
Q 1563 4744 2578 4744 
Q 2900 4744 3203 4694 
Q 3506 4644 3803 4544 
z
" transform="scale(0.015625)"/>
       </defs>
       <use xlink:href="#DejaVuSans-Bold-30"/>
       <use xlink:href="#DejaVuSans-Bold-2e" x="69.580078"/>
       <use xlink:href="#DejaVuSans-Bold-36" x="107.568359"/>
      </g>
     </g>
    </g>
    <g id="ytick_5">
     <g id="line2d_25">
      <g>
       <use xlink:href="#m776693ddfd" x="86.13" y="120.474286" style="stroke: #000000"/>
      </g>
     </g>
     <g id="text_25">
      <!-- 0.8 -->
      <g transform="translate(44.744687 127.312879) scale(0.18 -0.18)">
       <defs>
        <path id="DejaVuSans-Bold-38" d="M 2228 2088 
Q 1891 2088 1709 1903 
Q 1528 1719 1528 1375 
Q 1528 1031 1709 848 
Q 1891 666 2228 666 
Q 2563 666 2741 848 
Q 2919 1031 2919 1375 
Q 2919 1722 2741 1905 
Q 2563 2088 2228 2088 
z
M 1350 2484 
Q 925 2613 709 2878 
Q 494 3144 494 3541 
Q 494 4131 934 4440 
Q 1375 4750 2228 4750 
Q 3075 4750 3515 4442 
Q 3956 4134 3956 3541 
Q 3956 3144 3739 2878 
Q 3522 2613 3097 2484 
Q 3572 2353 3814 2058 
Q 4056 1763 4056 1313 
Q 4056 619 3595 264 
Q 3134 -91 2228 -91 
Q 1319 -91 855 264 
Q 391 619 391 1313 
Q 391 1763 633 2058 
Q 875 2353 1350 2484 
z
M 1631 3419 
Q 1631 3141 1786 2991 
Q 1941 2841 2228 2841 
Q 2509 2841 2662 2991 
Q 2816 3141 2816 3419 
Q 2816 3697 2662 3845 
Q 2509 3994 2228 3994 
Q 1941 3994 1786 3844 
Q 1631 3694 1631 3419 
z
" transform="scale(0.015625)"/>
       </defs>
       <use xlink:href="#DejaVuSans-Bold-30"/>
       <use xlink:href="#DejaVuSans-Bold-2e" x="69.580078"/>
       <use xlink:href="#DejaVuSans-Bold-38" x="107.568359"/>
      </g>
     </g>
    </g>
    <g id="ytick_6">
     <g id="line2d_26">
      <g>
       <use xlink:href="#m776693ddfd" x="86.13" y="60.286857" style="stroke: #000000"/>
      </g>
     </g>
     <g id="text_26">
      <!-- 1.0 -->
      <g transform="translate(44.744687 67.125451) scale(0.18 -0.18)">
       <defs>
        <path id="DejaVuSans-Bold-31" d="M 750 831 
L 1813 831 
L 1813 3847 
L 722 3622 
L 722 4441 
L 1806 4666 
L 2950 4666 
L 2950 831 
L 4013 831 
L 4013 0 
L 750 0 
L 750 831 
z
" transform="scale(0.015625)"/>
       </defs>
       <use xlink:href="#DejaVuSans-Bold-31"/>
       <use xlink:href="#DejaVuSans-Bold-2e" x="69.580078"/>
       <use xlink:href="#DejaVuSans-Bold-30" x="107.568359"/>
      </g>
     </g>
    </g>
    <g id="text_27">
     <!-- Scores -->
     <g transform="translate(27.169375 244.664187) rotate(-90) scale(0.22 -0.22)">
      <defs>
       <path id="DejaVuSans-Bold-63" d="M 3366 3391 
L 3366 2478 
Q 3138 2634 2908 2709 
Q 2678 2784 2431 2784 
Q 1963 2784 1702 2511 
Q 1441 2238 1441 1747 
Q 1441 1256 1702 982 
Q 1963 709 2431 709 
Q 2694 709 2930 787 
Q 3166 866 3366 1019 
L 3366 103 
Q 3103 6 2833 -42 
Q 2563 -91 2291 -91 
Q 1344 -91 809 395 
Q 275 881 275 1747 
Q 275 2613 809 3098 
Q 1344 3584 2291 3584 
Q 2566 3584 2833 3536 
Q 3100 3488 3366 3391 
z
" transform="scale(0.015625)"/>
       <path id="DejaVuSans-Bold-6f" d="M 2203 2784 
Q 1831 2784 1636 2517 
Q 1441 2250 1441 1747 
Q 1441 1244 1636 976 
Q 1831 709 2203 709 
Q 2569 709 2762 976 
Q 2956 1244 2956 1747 
Q 2956 2250 2762 2517 
Q 2569 2784 2203 2784 
z
M 2203 3584 
Q 3106 3584 3614 3096 
Q 4122 2609 4122 1747 
Q 4122 884 3614 396 
Q 3106 -91 2203 -91 
Q 1297 -91 786 396 
Q 275 884 275 1747 
Q 275 2609 786 3096 
Q 1297 3584 2203 3584 
z
" transform="scale(0.015625)"/>
       <path id="DejaVuSans-Bold-72" d="M 3138 2547 
Q 2991 2616 2845 2648 
Q 2700 2681 2553 2681 
Q 2122 2681 1889 2404 
Q 1656 2128 1656 1613 
L 1656 0 
L 538 0 
L 538 3500 
L 1656 3500 
L 1656 2925 
Q 1872 3269 2151 3426 
Q 2431 3584 2822 3584 
Q 2878 3584 2943 3579 
Q 3009 3575 3134 3559 
L 3138 2547 
z
" transform="scale(0.015625)"/>
       <path id="DejaVuSans-Bold-65" d="M 4031 1759 
L 4031 1441 
L 1416 1441 
Q 1456 1047 1700 850 
Q 1944 653 2381 653 
Q 2734 653 3104 758 
Q 3475 863 3866 1075 
L 3866 213 
Q 3469 63 3072 -14 
Q 2675 -91 2278 -91 
Q 1328 -91 801 392 
Q 275 875 275 1747 
Q 275 2603 792 3093 
Q 1309 3584 2216 3584 
Q 3041 3584 3536 3087 
Q 4031 2591 4031 1759 
z
M 2881 2131 
Q 2881 2450 2695 2645 
Q 2509 2841 2209 2841 
Q 1884 2841 1681 2658 
Q 1478 2475 1428 2131 
L 2881 2131 
z
" transform="scale(0.015625)"/>
       <path id="DejaVuSans-Bold-73" d="M 3272 3391 
L 3272 2541 
Q 2913 2691 2578 2766 
Q 2244 2841 1947 2841 
Q 1628 2841 1473 2761 
Q 1319 2681 1319 2516 
Q 1319 2381 1436 2309 
Q 1553 2238 1856 2203 
L 2053 2175 
Q 2913 2066 3209 1816 
Q 3506 1566 3506 1031 
Q 3506 472 3093 190 
Q 2681 -91 1863 -91 
Q 1516 -91 1145 -36 
Q 775 19 384 128 
L 384 978 
Q 719 816 1070 734 
Q 1422 653 1784 653 
Q 2113 653 2278 743 
Q 2444 834 2444 1013 
Q 2444 1163 2330 1236 
Q 2216 1309 1875 1350 
L 1678 1375 
Q 931 1469 631 1722 
Q 331 1975 331 2491 
Q 331 3047 712 3315 
Q 1094 3584 1881 3584 
Q 2191 3584 2531 3537 
Q 2872 3491 3272 3391 
z
" transform="scale(0.015625)"/>
      </defs>
      <use xlink:href="#DejaVuSans-Bold-53"/>
      <use xlink:href="#DejaVuSans-Bold-63" x="72.021484"/>
      <use xlink:href="#DejaVuSans-Bold-6f" x="131.298828"/>
      <use xlink:href="#DejaVuSans-Bold-72" x="200"/>
      <use xlink:href="#DejaVuSans-Bold-65" x="249.316406"/>
      <use xlink:href="#DejaVuSans-Bold-73" x="317.138672"/>
     </g>
    </g>
   </g>
   <g id="LineCollection_1">
    <path d="M 111.028725 293.513143 
L 111.028725 90.380571 
" clip-path="url(#p8af8936189)" style="fill: none; stroke: #000000; stroke-width: 1.5"/>
    <path d="M 146.598333 222.792914 
L 146.598333 77.440274 
" clip-path="url(#p8af8936189)" style="fill: none; stroke: #000000; stroke-width: 1.5"/>
    <path d="M 182.167941 324.810606 
L 182.167941 144.850194 
" clip-path="url(#p8af8936189)" style="fill: none; stroke: #000000; stroke-width: 1.5"/>
    <path d="M 217.737549 228.51072 
L 217.737549 67.208411 
" clip-path="url(#p8af8936189)" style="fill: none; stroke: #000000; stroke-width: 1.5"/>
    <path d="M 253.307157 329.023726 
L 253.307157 240.247269 
" clip-path="url(#p8af8936189)" style="fill: none; stroke: #000000; stroke-width: 1.5"/>
    <path d="M 288.876765 361.224 
L 288.876765 361.224 
" clip-path="url(#p8af8936189)" style="fill: none; stroke: #000000; stroke-width: 1.5"/>
    <path d="M 324.446373 323.606857 
L 324.446373 243.25664 
" clip-path="url(#p8af8936189)" style="fill: none; stroke: #000000; stroke-width: 1.5"/>
    <path d="M 360.01598 204.435749 
L 360.01598 62.694354 
" clip-path="url(#p8af8936189)" style="fill: none; stroke: #000000; stroke-width: 1.5"/>
    <path d="M 395.585588 332.273847 
L 395.585588 236.034149 
" clip-path="url(#p8af8936189)" style="fill: none; stroke: #000000; stroke-width: 1.5"/>
    <path d="M 431.155196 279.970971 
L 431.155196 76.537463 
" clip-path="url(#p8af8936189)" style="fill: none; stroke: #000000; stroke-width: 1.5"/>
    <path d="M 466.724804 107.834926 
L 466.724804 60.888731 
" clip-path="url(#p8af8936189)" style="fill: none; stroke: #000000; stroke-width: 1.5"/>
    <path d="M 502.294412 190.59264 
L 502.294412 63.597166 
" clip-path="url(#p8af8936189)" style="fill: none; stroke: #000000; stroke-width: 1.5"/>
    <path d="M 537.86402 238.742583 
L 537.86402 66.606537 
" clip-path="url(#p8af8936189)" style="fill: none; stroke: #000000; stroke-width: 1.5"/>
    <path d="M 573.433627 222.792914 
L 573.433627 64.19904 
" clip-path="url(#p8af8936189)" style="fill: none; stroke: #000000; stroke-width: 1.5"/>
    <path d="M 609.003235 183.069211 
L 609.003235 64.499977 
" clip-path="url(#p8af8936189)" style="fill: none; stroke: #000000; stroke-width: 1.5"/>
    <path d="M 644.572843 278.767223 
L 644.572843 74.129966 
" clip-path="url(#p8af8936189)" style="fill: none; stroke: #000000; stroke-width: 1.5"/>
    <path d="M 680.142451 267.331611 
L 680.142451 68.713097 
" clip-path="url(#p8af8936189)" style="fill: none; stroke: #000000; stroke-width: 1.5"/>
    <path d="M 715.712059 263.118491 
L 715.712059 69.014034 
" clip-path="url(#p8af8936189)" style="fill: none; stroke: #000000; stroke-width: 1.5"/>
    <path d="M 751.281667 287.4944 
L 751.281667 87.672137 
" clip-path="url(#p8af8936189)" style="fill: none; stroke: #000000; stroke-width: 1.5"/>
    <path d="M 786.851275 231.821029 
L 786.851275 70.51872 
" clip-path="url(#p8af8936189)" style="fill: none; stroke: #000000; stroke-width: 1.5"/>
   </g>
   <g id="line2d_27">
    <defs>
     <path id="mf66b619468" d="M 5 0 
L -5 -0 
" style="stroke: #000000"/>
    </defs>
    <g clip-path="url(#p8af8936189)">
     <use xlink:href="#mf66b619468" x="111.028725" y="293.513143" style="stroke: #000000"/>
     <use xlink:href="#mf66b619468" x="146.598333" y="222.792914" style="stroke: #000000"/>
     <use xlink:href="#mf66b619468" x="182.167941" y="324.810606" style="stroke: #000000"/>
     <use xlink:href="#mf66b619468" x="217.737549" y="228.51072" style="stroke: #000000"/>
     <use xlink:href="#mf66b619468" x="253.307157" y="329.023726" style="stroke: #000000"/>
     <use xlink:href="#mf66b619468" x="288.876765" y="361.224" style="stroke: #000000"/>
     <use xlink:href="#mf66b619468" x="324.446373" y="323.606857" style="stroke: #000000"/>
     <use xlink:href="#mf66b619468" x="360.01598" y="204.435749" style="stroke: #000000"/>
     <use xlink:href="#mf66b619468" x="395.585588" y="332.273847" style="stroke: #000000"/>
     <use xlink:href="#mf66b619468" x="431.155196" y="279.970971" style="stroke: #000000"/>
     <use xlink:href="#mf66b619468" x="466.724804" y="107.834926" style="stroke: #000000"/>
     <use xlink:href="#mf66b619468" x="502.294412" y="190.59264" style="stroke: #000000"/>
     <use xlink:href="#mf66b619468" x="537.86402" y="238.742583" style="stroke: #000000"/>
     <use xlink:href="#mf66b619468" x="573.433627" y="222.792914" style="stroke: #000000"/>
     <use xlink:href="#mf66b619468" x="609.003235" y="183.069211" style="stroke: #000000"/>
     <use xlink:href="#mf66b619468" x="644.572843" y="278.767223" style="stroke: #000000"/>
     <use xlink:href="#mf66b619468" x="680.142451" y="267.331611" style="stroke: #000000"/>
     <use xlink:href="#mf66b619468" x="715.712059" y="263.118491" style="stroke: #000000"/>
     <use xlink:href="#mf66b619468" x="751.281667" y="287.4944" style="stroke: #000000"/>
     <use xlink:href="#mf66b619468" x="786.851275" y="231.821029" style="stroke: #000000"/>
    </g>
   </g>
   <g id="line2d_28">
    <g clip-path="url(#p8af8936189)">
     <use xlink:href="#mf66b619468" x="111.028725" y="90.380571" style="stroke: #000000"/>
     <use xlink:href="#mf66b619468" x="146.598333" y="77.440274" style="stroke: #000000"/>
     <use xlink:href="#mf66b619468" x="182.167941" y="144.850194" style="stroke: #000000"/>
     <use xlink:href="#mf66b619468" x="217.737549" y="67.208411" style="stroke: #000000"/>
     <use xlink:href="#mf66b619468" x="253.307157" y="240.247269" style="stroke: #000000"/>
     <use xlink:href="#mf66b619468" x="288.876765" y="361.224" style="stroke: #000000"/>
     <use xlink:href="#mf66b619468" x="324.446373" y="243.25664" style="stroke: #000000"/>
     <use xlink:href="#mf66b619468" x="360.01598" y="62.694354" style="stroke: #000000"/>
     <use xlink:href="#mf66b619468" x="395.585588" y="236.034149" style="stroke: #000000"/>
     <use xlink:href="#mf66b619468" x="431.155196" y="76.537463" style="stroke: #000000"/>
     <use xlink:href="#mf66b619468" x="466.724804" y="60.888731" style="stroke: #000000"/>
     <use xlink:href="#mf66b619468" x="502.294412" y="63.597166" style="stroke: #000000"/>
     <use xlink:href="#mf66b619468" x="537.86402" y="66.606537" style="stroke: #000000"/>
     <use xlink:href="#mf66b619468" x="573.433627" y="64.19904" style="stroke: #000000"/>
     <use xlink:href="#mf66b619468" x="609.003235" y="64.499977" style="stroke: #000000"/>
     <use xlink:href="#mf66b619468" x="644.572843" y="74.129966" style="stroke: #000000"/>
     <use xlink:href="#mf66b619468" x="680.142451" y="68.713097" style="stroke: #000000"/>
     <use xlink:href="#mf66b619468" x="715.712059" y="69.014034" style="stroke: #000000"/>
     <use xlink:href="#mf66b619468" x="751.281667" y="87.672137" style="stroke: #000000"/>
     <use xlink:href="#mf66b619468" x="786.851275" y="70.51872" style="stroke: #000000"/>
    </g>
   </g>
   <g id="line2d_29">
    <path d="M 448.94 418.10112 
L 448.94 45.24 
" style="fill: none; stroke: #000000; stroke-linecap: square"/>
   </g>
   <g id="patch_25">
    <path d="M 86.13 361.224 
L 86.13 45.24 
" style="fill: none; stroke: #000000; stroke-width: 0.8; stroke-linejoin: miter; stroke-linecap: square"/>
   </g>
   <g id="patch_26">
    <path d="M 811.75 361.224 
L 811.75 45.24 
" style="fill: none; stroke: #000000; stroke-width: 0.8; stroke-linejoin: miter; stroke-linecap: square"/>
   </g>
   <g id="patch_27">
    <path d="M 86.13 361.224 
L 811.75 361.224 
" style="fill: none; stroke: #000000; stroke-width: 0.8; stroke-linejoin: miter; stroke-linecap: square"/>
   </g>
   <g id="patch_28">
    <path d="M 86.13 45.24 
L 811.75 45.24 
" style="fill: none; stroke: #000000; stroke-width: 0.8; stroke-linejoin: miter; stroke-linecap: square"/>
   </g>
   <g id="text_28">
    <!-- Hydrophobic amino acids -->
    <g transform="translate(128.821648 414.062225) scale(0.2 -0.2)">
     <defs>
      <path id="DejaVuSans-Bold-79" d="M 78 3500 
L 1197 3500 
L 2138 1125 
L 2938 3500 
L 4056 3500 
L 2584 -331 
Q 2363 -916 2067 -1148 
Q 1772 -1381 1288 -1381 
L 641 -1381 
L 641 -647 
L 991 -647 
Q 1275 -647 1404 -556 
Q 1534 -466 1606 -231 
L 1638 -134 
L 78 3500 
z
" transform="scale(0.015625)"/>
      <path id="DejaVuSans-Bold-64" d="M 2919 2988 
L 2919 4863 
L 4044 4863 
L 4044 0 
L 2919 0 
L 2919 506 
Q 2688 197 2409 53 
Q 2131 -91 1766 -91 
Q 1119 -91 703 423 
Q 288 938 288 1747 
Q 288 2556 703 3070 
Q 1119 3584 1766 3584 
Q 2128 3584 2408 3439 
Q 2688 3294 2919 2988 
z
M 2181 722 
Q 2541 722 2730 984 
Q 2919 1247 2919 1747 
Q 2919 2247 2730 2509 
Q 2541 2772 2181 2772 
Q 1825 2772 1636 2509 
Q 1447 2247 1447 1747 
Q 1447 1247 1636 984 
Q 1825 722 2181 722 
z
" transform="scale(0.015625)"/>
      <path id="DejaVuSans-Bold-70" d="M 1656 506 
L 1656 -1331 
L 538 -1331 
L 538 3500 
L 1656 3500 
L 1656 2988 
Q 1888 3294 2169 3439 
Q 2450 3584 2816 3584 
Q 3463 3584 3878 3070 
Q 4294 2556 4294 1747 
Q 4294 938 3878 423 
Q 3463 -91 2816 -91 
Q 2450 -91 2169 54 
Q 1888 200 1656 506 
z
M 2400 2772 
Q 2041 2772 1848 2508 
Q 1656 2244 1656 1747 
Q 1656 1250 1848 986 
Q 2041 722 2400 722 
Q 2759 722 2948 984 
Q 3138 1247 3138 1747 
Q 3138 2247 2948 2509 
Q 2759 2772 2400 2772 
z
" transform="scale(0.015625)"/>
      <path id="DejaVuSans-Bold-68" d="M 4056 2131 
L 4056 0 
L 2931 0 
L 2931 347 
L 2931 1625 
Q 2931 2084 2911 2256 
Q 2891 2428 2841 2509 
Q 2775 2619 2662 2680 
Q 2550 2741 2406 2741 
Q 2056 2741 1856 2470 
Q 1656 2200 1656 1722 
L 1656 0 
L 538 0 
L 538 4863 
L 1656 4863 
L 1656 2988 
Q 1909 3294 2193 3439 
Q 2478 3584 2822 3584 
Q 3428 3584 3742 3212 
Q 4056 2841 4056 2131 
z
" transform="scale(0.015625)"/>
      <path id="DejaVuSans-Bold-62" d="M 2400 722 
Q 2759 722 2948 984 
Q 3138 1247 3138 1747 
Q 3138 2247 2948 2509 
Q 2759 2772 2400 2772 
Q 2041 2772 1848 2508 
Q 1656 2244 1656 1747 
Q 1656 1250 1848 986 
Q 2041 722 2400 722 
z
M 1656 2988 
Q 1888 3294 2169 3439 
Q 2450 3584 2816 3584 
Q 3463 3584 3878 3070 
Q 4294 2556 4294 1747 
Q 4294 938 3878 423 
Q 3463 -91 2816 -91 
Q 2450 -91 2169 54 
Q 1888 200 1656 506 
L 1656 0 
L 538 0 
L 538 4863 
L 1656 4863 
L 1656 2988 
z
" transform="scale(0.015625)"/>
      <path id="DejaVuSans-Bold-69" d="M 538 3500 
L 1656 3500 
L 1656 0 
L 538 0 
L 538 3500 
z
M 538 4863 
L 1656 4863 
L 1656 3950 
L 538 3950 
L 538 4863 
z
" transform="scale(0.015625)"/>
      <path id="DejaVuSans-Bold-20" transform="scale(0.015625)"/>
      <path id="DejaVuSans-Bold-61" d="M 2106 1575 
Q 1756 1575 1579 1456 
Q 1403 1338 1403 1106 
Q 1403 894 1545 773 
Q 1688 653 1941 653 
Q 2256 653 2472 879 
Q 2688 1106 2688 1447 
L 2688 1575 
L 2106 1575 
z
M 3816 1997 
L 3816 0 
L 2688 0 
L 2688 519 
Q 2463 200 2181 54 
Q 1900 -91 1497 -91 
Q 953 -91 614 226 
Q 275 544 275 1050 
Q 275 1666 698 1953 
Q 1122 2241 2028 2241 
L 2688 2241 
L 2688 2328 
Q 2688 2594 2478 2717 
Q 2269 2841 1825 2841 
Q 1466 2841 1156 2769 
Q 847 2697 581 2553 
L 581 3406 
Q 941 3494 1303 3539 
Q 1666 3584 2028 3584 
Q 2975 3584 3395 3211 
Q 3816 2838 3816 1997 
z
" transform="scale(0.015625)"/>
      <path id="DejaVuSans-Bold-6d" d="M 3781 2919 
Q 3994 3244 4286 3414 
Q 4578 3584 4928 3584 
Q 5531 3584 5847 3212 
Q 6163 2841 6163 2131 
L 6163 0 
L 5038 0 
L 5038 1825 
Q 5041 1866 5042 1909 
Q 5044 1953 5044 2034 
Q 5044 2406 4934 2573 
Q 4825 2741 4581 2741 
Q 4263 2741 4089 2478 
Q 3916 2216 3909 1719 
L 3909 0 
L 2784 0 
L 2784 1825 
Q 2784 2406 2684 2573 
Q 2584 2741 2328 2741 
Q 2006 2741 1831 2477 
Q 1656 2213 1656 1722 
L 1656 0 
L 531 0 
L 531 3500 
L 1656 3500 
L 1656 2988 
Q 1863 3284 2130 3434 
Q 2397 3584 2719 3584 
Q 3081 3584 3359 3409 
Q 3638 3234 3781 2919 
z
" transform="scale(0.015625)"/>
      <path id="DejaVuSans-Bold-6e" d="M 4056 2131 
L 4056 0 
L 2931 0 
L 2931 347 
L 2931 1631 
Q 2931 2084 2911 2256 
Q 2891 2428 2841 2509 
Q 2775 2619 2662 2680 
Q 2550 2741 2406 2741 
Q 2056 2741 1856 2470 
Q 1656 2200 1656 1722 
L 1656 0 
L 538 0 
L 538 3500 
L 1656 3500 
L 1656 2988 
Q 1909 3294 2193 3439 
Q 2478 3584 2822 3584 
Q 3428 3584 3742 3212 
Q 4056 2841 4056 2131 
z
" transform="scale(0.015625)"/>
     </defs>
     <use xlink:href="#DejaVuSans-Bold-48"/>
     <use xlink:href="#DejaVuSans-Bold-79" x="83.691406"/>
     <use xlink:href="#DejaVuSans-Bold-64" x="148.876953"/>
     <use xlink:href="#DejaVuSans-Bold-72" x="220.458984"/>
     <use xlink:href="#DejaVuSans-Bold-6f" x="269.775391"/>
     <use xlink:href="#DejaVuSans-Bold-70" x="338.476562"/>
     <use xlink:href="#DejaVuSans-Bold-68" x="410.058594"/>
     <use xlink:href="#DejaVuSans-Bold-6f" x="481.25"/>
     <use xlink:href="#DejaVuSans-Bold-62" x="549.951172"/>
     <use xlink:href="#DejaVuSans-Bold-69" x="621.533203"/>
     <use xlink:href="#DejaVuSans-Bold-63" x="655.810547"/>
     <use xlink:href="#DejaVuSans-Bold-20" x="715.087891"/>
     <use xlink:href="#DejaVuSans-Bold-61" x="749.902344"/>
     <use xlink:href="#DejaVuSans-Bold-6d" x="817.382812"/>
     <use xlink:href="#DejaVuSans-Bold-69" x="921.582031"/>
     <use xlink:href="#DejaVuSans-Bold-6e" x="955.859375"/>
     <use xlink:href="#DejaVuSans-Bold-6f" x="1027.050781"/>
     <use xlink:href="#DejaVuSans-Bold-20" x="1095.751953"/>
     <use xlink:href="#DejaVuSans-Bold-61" x="1130.566406"/>
     <use xlink:href="#DejaVuSans-Bold-63" x="1198.046875"/>
     <use xlink:href="#DejaVuSans-Bold-69" x="1257.324219"/>
     <use xlink:href="#DejaVuSans-Bold-64" x="1291.601562"/>
     <use xlink:href="#DejaVuSans-Bold-73" x="1363.183594"/>
    </g>
   </g>
   <g id="text_29">
    <!-- Hydrophilic amino acids -->
    <g transform="translate(491.689602 414.062225) scale(0.2 -0.2)">
     <defs>
      <path id="DejaVuSans-Bold-6c" d="M 538 4863 
L 1656 4863 
L 1656 0 
L 538 0 
L 538 4863 
z
" transform="scale(0.015625)"/>
     </defs>
     <use xlink:href="#DejaVuSans-Bold-48"/>
     <use xlink:href="#DejaVuSans-Bold-79" x="83.691406"/>
     <use xlink:href="#DejaVuSans-Bold-64" x="148.876953"/>
     <use xlink:href="#DejaVuSans-Bold-72" x="220.458984"/>
     <use xlink:href="#DejaVuSans-Bold-6f" x="269.775391"/>
     <use xlink:href="#DejaVuSans-Bold-70" x="338.476562"/>
     <use xlink:href="#DejaVuSans-Bold-68" x="410.058594"/>
     <use xlink:href="#DejaVuSans-Bold-69" x="481.25"/>
     <use xlink:href="#DejaVuSans-Bold-6c" x="515.527344"/>
     <use xlink:href="#DejaVuSans-Bold-69" x="549.804688"/>
     <use xlink:href="#DejaVuSans-Bold-63" x="584.082031"/>
     <use xlink:href="#DejaVuSans-Bold-20" x="643.359375"/>
     <use xlink:href="#DejaVuSans-Bold-61" x="678.173828"/>
     <use xlink:href="#DejaVuSans-Bold-6d" x="745.654297"/>
     <use xlink:href="#DejaVuSans-Bold-69" x="849.853516"/>
     <use xlink:href="#DejaVuSans-Bold-6e" x="884.130859"/>
     <use xlink:href="#DejaVuSans-Bold-6f" x="955.322266"/>
     <use xlink:href="#DejaVuSans-Bold-20" x="1024.023438"/>
     <use xlink:href="#DejaVuSans-Bold-61" x="1058.837891"/>
     <use xlink:href="#DejaVuSans-Bold-63" x="1126.318359"/>
     <use xlink:href="#DejaVuSans-Bold-69" x="1185.595703"/>
     <use xlink:href="#DejaVuSans-Bold-64" x="1219.873047"/>
     <use xlink:href="#DejaVuSans-Bold-73" x="1291.455078"/>
    </g>
   </g>
   <g id="text_30">
    <!-- (Synonymous) -->
    <g transform="translate(292.94903 346.177143) rotate(-90) scale(0.15 -0.15)">
     <defs>
      <path id="DejaVuSans-BoldOblique-28" d="M 1888 -844 
L 978 -844 
Q 734 -325 614 173 
Q 494 672 494 1166 
Q 494 2088 891 3008 
Q 1288 3928 2088 4856 
L 2994 4856 
Q 2266 3888 1908 2939 
Q 1550 1991 1550 1038 
Q 1550 569 1634 101 
Q 1719 -366 1888 -844 
z
" transform="scale(0.015625)"/>
      <path id="DejaVuSans-BoldOblique-53" d="M 4256 4519 
L 4063 3531 
Q 3709 3706 3365 3792 
Q 3022 3878 2694 3878 
Q 2244 3878 1992 3737 
Q 1741 3597 1741 3347 
Q 1741 3188 1852 3098 
Q 1963 3009 2309 2925 
L 2803 2803 
Q 3422 2647 3711 2351 
Q 4000 2056 4000 1588 
Q 4000 828 3423 368 
Q 2847 -91 1875 -91 
Q 1422 -91 973 -6 
Q 525 78 97 244 
L 288 1259 
Q 703 1019 1095 900 
Q 1488 781 1869 781 
Q 2281 781 2539 950 
Q 2797 1119 2797 1381 
Q 2797 1553 2681 1648 
Q 2566 1744 2175 1844 
L 1684 1966 
Q 1141 2100 875 2390 
Q 609 2681 609 3144 
Q 609 3872 1167 4311 
Q 1725 4750 2669 4750 
Q 3047 4750 3445 4692 
Q 3844 4634 4256 4519 
z
" transform="scale(0.015625)"/>
      <path id="DejaVuSans-BoldOblique-79" d="M 422 3500 
L 1478 3500 
L 1959 1075 
L 3200 3500 
L 4397 3500 
L 2181 -331 
Q 1809 -978 1493 -1179 
Q 1178 -1381 678 -1381 
L 0 -1381 
L 116 -647 
L 469 -647 
Q 744 -647 895 -555 
Q 1047 -463 1166 -231 
L 1269 -44 
L 422 3500 
z
" transform="scale(0.015625)"/>
      <path id="DejaVuSans-BoldOblique-6e" d="M 4128 2131 
L 3713 0 
L 2591 0 
L 2944 1825 
Q 2981 2003 3001 2126 
Q 3022 2250 3022 2322 
Q 3022 2522 2911 2631 
Q 2800 2741 2597 2741 
Q 2250 2741 2001 2470 
Q 1753 2200 1656 1722 
L 1319 0 
L 197 0 
L 878 3500 
L 2003 3500 
L 1900 2988 
Q 2209 3291 2521 3437 
Q 2834 3584 3175 3584 
Q 3659 3584 3921 3331 
Q 4184 3078 4184 2619 
Q 4184 2519 4170 2397 
Q 4156 2275 4128 2131 
z
" transform="scale(0.015625)"/>
      <path id="DejaVuSans-BoldOblique-6f" d="M 2400 2784 
Q 1966 2784 1684 2390 
Q 1403 1997 1403 1388 
Q 1403 1056 1554 882 
Q 1706 709 1997 709 
Q 2431 709 2712 1104 
Q 2994 1500 2994 2113 
Q 2994 2441 2842 2612 
Q 2691 2784 2400 2784 
z
M 2491 3584 
Q 3272 3584 3719 3187 
Q 4166 2791 4166 2106 
Q 4166 1709 4025 1336 
Q 3884 963 3616 653 
Q 3297 284 2862 96 
Q 2428 -91 1894 -91 
Q 1122 -91 676 306 
Q 231 703 231 1388 
Q 231 1781 375 2157 
Q 519 2534 788 2847 
Q 1100 3209 1533 3396 
Q 1966 3584 2491 3584 
z
" transform="scale(0.015625)"/>
      <path id="DejaVuSans-BoldOblique-6d" d="M 4013 2919 
Q 4272 3241 4601 3412 
Q 4931 3584 5288 3584 
Q 5756 3584 6026 3326 
Q 6297 3069 6297 2619 
Q 6297 2525 6283 2404 
Q 6269 2284 6241 2131 
L 5825 0 
L 4697 0 
L 5050 1825 
L 5059 1872 
Q 5141 2259 5141 2369 
Q 5141 2541 5042 2641 
Q 4944 2741 4775 2741 
Q 4453 2741 4229 2477 
Q 4006 2213 3909 1722 
L 3572 0 
L 2444 0 
L 2803 1825 
Q 2850 2059 2869 2179 
Q 2888 2300 2888 2369 
Q 2888 2544 2791 2642 
Q 2694 2741 2522 2741 
Q 2213 2741 1980 2467 
Q 1747 2194 1656 1722 
L 1319 0 
L 197 0 
L 878 3500 
L 2003 3500 
L 1900 2988 
Q 2163 3284 2459 3434 
Q 2756 3584 3078 3584 
Q 3441 3584 3700 3398 
Q 3959 3213 4013 2919 
z
" transform="scale(0.015625)"/>
      <path id="DejaVuSans-BoldOblique-75" d="M 434 1363 
L 844 3500 
L 1966 3500 
L 1613 1678 
Q 1575 1500 1556 1375 
Q 1538 1250 1538 1178 
Q 1538 981 1647 872 
Q 1756 763 1959 763 
Q 2306 763 2556 1031 
Q 2806 1300 2900 1778 
L 3238 3500 
L 4359 3500 
L 3681 0 
L 2553 0 
L 2656 513 
Q 2369 209 2053 59 
Q 1738 -91 1388 -91 
Q 909 -91 646 162 
Q 384 416 384 878 
Q 384 988 396 1109 
Q 409 1231 434 1363 
z
" transform="scale(0.015625)"/>
      <path id="DejaVuSans-BoldOblique-73" d="M 3584 3391 
L 3419 2522 
Q 3091 2678 2766 2759 
Q 2441 2841 2150 2841 
Q 1819 2841 1639 2755 
Q 1459 2669 1459 2509 
Q 1459 2416 1559 2359 
Q 1659 2303 1953 2241 
L 2156 2203 
Q 2834 2059 3106 1832 
Q 3378 1606 3378 1203 
Q 3378 594 2900 251 
Q 2422 -91 1563 -91 
Q 1203 -91 828 -34 
Q 453 22 63 134 
L 231 1013 
Q 534 834 879 743 
Q 1225 653 1588 653 
Q 1941 653 2119 737 
Q 2297 822 2297 984 
Q 2297 1097 2197 1159 
Q 2097 1222 1784 1288 
L 1581 1325 
Q 981 1450 725 1694 
Q 469 1938 469 2369 
Q 469 2953 911 3268 
Q 1353 3584 2175 3584 
Q 2534 3584 2882 3536 
Q 3231 3488 3584 3391 
z
" transform="scale(0.015625)"/>
      <path id="DejaVuSans-BoldOblique-29" d="M 934 4856 
L 1850 4856 
Q 2091 4344 2209 3845 
Q 2328 3347 2328 2847 
Q 2328 1916 1933 995 
Q 1538 75 744 -844 
L -172 -844 
Q 556 125 915 1075 
Q 1275 2025 1275 2981 
Q 1275 3450 1190 3914 
Q 1106 4378 934 4856 
z
" transform="scale(0.015625)"/>
     </defs>
     <use xlink:href="#DejaVuSans-BoldOblique-28"/>
     <use xlink:href="#DejaVuSans-BoldOblique-53" x="45.703125"/>
     <use xlink:href="#DejaVuSans-BoldOblique-79" x="117.724609"/>
     <use xlink:href="#DejaVuSans-BoldOblique-6e" x="182.910156"/>
     <use xlink:href="#DejaVuSans-BoldOblique-6f" x="254.101562"/>
     <use xlink:href="#DejaVuSans-BoldOblique-6e" x="322.802734"/>
     <use xlink:href="#DejaVuSans-BoldOblique-79" x="393.994141"/>
     <use xlink:href="#DejaVuSans-BoldOblique-6d" x="459.179688"/>
     <use xlink:href="#DejaVuSans-BoldOblique-6f" x="563.378906"/>
     <use xlink:href="#DejaVuSans-BoldOblique-75" x="632.080078"/>
     <use xlink:href="#DejaVuSans-BoldOblique-73" x="703.271484"/>
     <use xlink:href="#DejaVuSans-BoldOblique-29" x="762.792969"/>
    </g>
   </g>
   <g id="text_31">
    <!-- L&gt;amino acid substitutions -->
    <g transform="translate(248.744062 30.24) scale(0.26 -0.26)">
     <defs>
      <path id="DejaVuSans-Bold-3e" d="M 678 3041 
L 678 3822 
L 4684 2375 
L 4684 1638 
L 678 191 
L 678 972 
L 3694 2003 
L 678 3041 
z
" transform="scale(0.015625)"/>
      <path id="DejaVuSans-Bold-75" d="M 500 1363 
L 500 3500 
L 1625 3500 
L 1625 3150 
Q 1625 2866 1622 2436 
Q 1619 2006 1619 1863 
Q 1619 1441 1641 1255 
Q 1663 1069 1716 984 
Q 1784 875 1895 815 
Q 2006 756 2150 756 
Q 2500 756 2700 1025 
Q 2900 1294 2900 1772 
L 2900 3500 
L 4019 3500 
L 4019 0 
L 2900 0 
L 2900 506 
Q 2647 200 2364 54 
Q 2081 -91 1741 -91 
Q 1134 -91 817 281 
Q 500 653 500 1363 
z
" transform="scale(0.015625)"/>
      <path id="DejaVuSans-Bold-74" d="M 1759 4494 
L 1759 3500 
L 2913 3500 
L 2913 2700 
L 1759 2700 
L 1759 1216 
Q 1759 972 1856 886 
Q 1953 800 2241 800 
L 2816 800 
L 2816 0 
L 1856 0 
Q 1194 0 917 276 
Q 641 553 641 1216 
L 641 2700 
L 84 2700 
L 84 3500 
L 641 3500 
L 641 4494 
L 1759 4494 
z
" transform="scale(0.015625)"/>
     </defs>
     <use xlink:href="#DejaVuSans-Bold-4c"/>
     <use xlink:href="#DejaVuSans-Bold-3e" x="63.720703"/>
     <use xlink:href="#DejaVuSans-Bold-61" x="147.509766"/>
     <use xlink:href="#DejaVuSans-Bold-6d" x="214.990234"/>
     <use xlink:href="#DejaVuSans-Bold-69" x="319.189453"/>
     <use xlink:href="#DejaVuSans-Bold-6e" x="353.466797"/>
     <use xlink:href="#DejaVuSans-Bold-6f" x="424.658203"/>
     <use xlink:href="#DejaVuSans-Bold-20" x="493.359375"/>
     <use xlink:href="#DejaVuSans-Bold-61" x="528.173828"/>
     <use xlink:href="#DejaVuSans-Bold-63" x="595.654297"/>
     <use xlink:href="#DejaVuSans-Bold-69" x="654.931641"/>
     <use xlink:href="#DejaVuSans-Bold-64" x="689.208984"/>
     <use xlink:href="#DejaVuSans-Bold-20" x="760.791016"/>
     <use xlink:href="#DejaVuSans-Bold-73" x="795.605469"/>
     <use xlink:href="#DejaVuSans-Bold-75" x="855.126953"/>
     <use xlink:href="#DejaVuSans-Bold-62" x="926.318359"/>
     <use xlink:href="#DejaVuSans-Bold-73" x="997.900391"/>
     <use xlink:href="#DejaVuSans-Bold-74" x="1057.421875"/>
     <use xlink:href="#DejaVuSans-Bold-69" x="1105.224609"/>
     <use xlink:href="#DejaVuSans-Bold-74" x="1139.501953"/>
     <use xlink:href="#DejaVuSans-Bold-75" x="1187.304688"/>
     <use xlink:href="#DejaVuSans-Bold-74" x="1258.496094"/>
     <use xlink:href="#DejaVuSans-Bold-69" x="1306.298828"/>
     <use xlink:href="#DejaVuSans-Bold-6f" x="1340.576172"/>
     <use xlink:href="#DejaVuSans-Bold-6e" x="1409.277344"/>
     <use xlink:href="#DejaVuSans-Bold-73" x="1480.46875"/>
    </g>
   </g>
  </g>
  <g id="axes_2">
   <g id="matplotlib.axis_3">
    <g id="ytick_7">
     <g id="line2d_30">
      <defs>
       <path id="m414b0443a7" d="M 0 0 
L 6 0 
" style="stroke: #000000"/>
      </defs>
      <g>
       <use xlink:href="#m414b0443a7" x="811.75" y="361.224" style="stroke: #000000"/>
      </g>
     </g>
     <g id="text_32">
      <!-- 0.0 -->
      <g transform="translate(821.25 368.062594) scale(0.18 -0.18)">
       <use xlink:href="#DejaVuSans-Bold-30"/>
       <use xlink:href="#DejaVuSans-Bold-2e" x="69.580078"/>
       <use xlink:href="#DejaVuSans-Bold-30" x="107.568359"/>
      </g>
     </g>
    </g>
    <g id="ytick_8">
     <g id="line2d_31">
      <g>
       <use xlink:href="#m414b0443a7" x="811.75" y="301.036571" style="stroke: #000000"/>
      </g>
     </g>
     <g id="text_33">
      <!-- 0.2 -->
      <g transform="translate(821.25 307.875165) scale(0.18 -0.18)">
       <use xlink:href="#DejaVuSans-Bold-30"/>
       <use xlink:href="#DejaVuSans-Bold-2e" x="69.580078"/>
       <use xlink:href="#DejaVuSans-Bold-32" x="107.568359"/>
      </g>
     </g>
    </g>
    <g id="ytick_9">
     <g id="line2d_32">
      <g>
       <use xlink:href="#m414b0443a7" x="811.75" y="240.849143" style="stroke: #000000"/>
      </g>
     </g>
     <g id="text_34">
      <!-- 0.4 -->
      <g transform="translate(821.25 247.687737) scale(0.18 -0.18)">
       <use xlink:href="#DejaVuSans-Bold-30"/>
       <use xlink:href="#DejaVuSans-Bold-2e" x="69.580078"/>
       <use xlink:href="#DejaVuSans-Bold-34" x="107.568359"/>
      </g>
     </g>
    </g>
    <g id="ytick_10">
     <g id="line2d_33">
      <g>
       <use xlink:href="#m414b0443a7" x="811.75" y="180.661714" style="stroke: #000000"/>
      </g>
     </g>
     <g id="text_35">
      <!-- 0.6 -->
      <g transform="translate(821.25 187.500308) scale(0.18 -0.18)">
       <use xlink:href="#DejaVuSans-Bold-30"/>
       <use xlink:href="#DejaVuSans-Bold-2e" x="69.580078"/>
       <use xlink:href="#DejaVuSans-Bold-36" x="107.568359"/>
      </g>
     </g>
    </g>
    <g id="ytick_11">
     <g id="line2d_34">
      <g>
       <use xlink:href="#m414b0443a7" x="811.75" y="120.474286" style="stroke: #000000"/>
      </g>
     </g>
     <g id="text_36">
      <!-- 0.8 -->
      <g transform="translate(821.25 127.312879) scale(0.18 -0.18)">
       <use xlink:href="#DejaVuSans-Bold-30"/>
       <use xlink:href="#DejaVuSans-Bold-2e" x="69.580078"/>
       <use xlink:href="#DejaVuSans-Bold-38" x="107.568359"/>
      </g>
     </g>
    </g>
    <g id="ytick_12">
     <g id="line2d_35">
      <g>
       <use xlink:href="#m414b0443a7" x="811.75" y="60.286857" style="stroke: #000000"/>
      </g>
     </g>
     <g id="text_37">
      <!-- 1.0 -->
      <g transform="translate(821.25 67.125451) scale(0.18 -0.18)">
       <use xlink:href="#DejaVuSans-Bold-31"/>
       <use xlink:href="#DejaVuSans-Bold-2e" x="69.580078"/>
       <use xlink:href="#DejaVuSans-Bold-30" x="107.568359"/>
      </g>
     </g>
    </g>
   </g>
   <g id="patch_29">
    <path d="M 86.13 361.224 
L 86.13 45.24 
" style="fill: none; stroke: #000000; stroke-width: 0.8; stroke-linejoin: miter; stroke-linecap: square"/>
   </g>
   <g id="patch_30">
    <path d="M 811.75 361.224 
L 811.75 45.24 
" style="fill: none; stroke: #000000; stroke-width: 0.8; stroke-linejoin: miter; stroke-linecap: square"/>
   </g>
   <g id="patch_31">
    <path d="M 86.13 361.224 
L 811.75 361.224 
" style="fill: none; stroke: #000000; stroke-width: 0.8; stroke-linejoin: miter; stroke-linecap: square"/>
   </g>
   <g id="patch_32">
    <path d="M 86.13 45.24 
L 811.75 45.24 
" style="fill: none; stroke: #000000; stroke-width: 0.8; stroke-linejoin: miter; stroke-linecap: square"/>
   </g>
  </g>
 </g>
 <defs>
  <clipPath id="p8af8936189">
   <rect x="86.13" y="45.24" width="725.62" height="315.984"/>
  </clipPath>
 </defs>
</svg>
